<svg xmlns="http://www.w3.org/2000/svg" xmlns:xlink="http://www.w3.org/1999/xlink" version="1.1" width="256" height="256" viewBox="0 0 256 256" xml:space="preserve">

<defs>
</defs>
<g style="stroke: none; stroke-width: 0; stroke-dasharray: none; stroke-linecap: butt; stroke-linejoin: miter; stroke-miterlimit: 10; fill: none; fill-rule: nonzero; opacity: 1;" transform="translate(1.4065934065934016 1.4065934065934016) scale(2.81 2.81)" >
	<path d="M 86.194 76.99 H 3.806 C 1.708 76.99 0 75.282 0 73.184 V 16.816 c 0 -2.099 1.708 -3.806 3.806 -3.806 h 82.388 c 2.099 0 3.806 1.707 3.806 3.806 v 56.368 C 90 75.282 88.293 76.99 86.194 76.99 z M 3.806 15.01 C 2.81 15.01 2 15.82 2 16.816 v 56.368 c 0 0.996 0.81 1.807 1.806 1.807 h 82.388 C 87.19 74.99 88 74.18 88 73.184 V 16.816 c 0 -0.996 -0.81 -1.806 -1.806 -1.806 H 3.806 z" style="stroke: none; stroke-width: 1; stroke-dasharray: none; stroke-linecap: butt; stroke-linejoin: miter; stroke-miterlimit: 10; fill: rgb(0,0,0); fill-rule: nonzero; opacity: 1;" transform=" matrix(1 0 0 1 0 0) " stroke-linecap="round" />
	<path d="M 81.279 71.02 H 8.721 c -1.516 0 -2.75 -1.234 -2.75 -2.751 V 21.731 c 0 -1.517 1.234 -2.75 2.75 -2.75 h 72.559 c 1.517 0 2.75 1.234 2.75 2.75 v 46.538 C 84.029 69.785 82.796 71.02 81.279 71.02 z M 8.721 20.98 c -0.414 0 -0.75 0.337 -0.75 0.75 v 46.538 c 0 0.414 0.336 0.751 0.75 0.751 h 72.559 c 0.413 0 0.75 -0.337 0.75 -0.751 V 21.731 c 0 -0.414 -0.337 -0.75 -0.75 -0.75 H 8.721 z" style="stroke: none; stroke-width: 1; stroke-dasharray: none; stroke-linecap: butt; stroke-linejoin: miter; stroke-miterlimit: 10; fill: rgb(0,0,0); fill-rule: nonzero; opacity: 1;" transform=" matrix(1 0 0 1 0 0) " stroke-linecap="round" />
	<path d="M 60.368 34.894 h -0.364 c -0.553 0 -1 -0.448 -1 -1 s 0.447 -1 1 -1 h 0.364 c 0.553 0 1 0.448 1 1 S 60.921 34.894 60.368 34.894 z" style="stroke: none; stroke-width: 1; stroke-dasharray: none; stroke-linecap: butt; stroke-linejoin: miter; stroke-miterlimit: 10; fill: rgb(0,0,0); fill-rule: nonzero; opacity: 1;" transform=" matrix(1 0 0 1 0 0) " stroke-linecap="round" />
	<path d="M 60.368 40.26 h -0.364 c -0.553 0 -1 -0.448 -1 -1 s 0.447 -1 1 -1 h 0.364 c 0.553 0 1 0.448 1 1 S 60.921 40.26 60.368 40.26 z" style="stroke: none; stroke-width: 1; stroke-dasharray: none; stroke-linecap: butt; stroke-linejoin: miter; stroke-miterlimit: 10; fill: rgb(0,0,0); fill-rule: nonzero; opacity: 1;" transform=" matrix(1 0 0 1 0 0) " stroke-linecap="round" />
	<path d="M 60.368 45.626 h -0.364 c -0.553 0 -1 -0.448 -1 -1 s 0.447 -1 1 -1 h 0.364 c 0.553 0 1 0.448 1 1 S 60.921 45.626 60.368 45.626 z" style="stroke: none; stroke-width: 1; stroke-dasharray: none; stroke-linecap: butt; stroke-linejoin: miter; stroke-miterlimit: 10; fill: rgb(0,0,0); fill-rule: nonzero; opacity: 1;" transform=" matrix(1 0 0 1 0 0) " stroke-linecap="round" />
	<path d="M 60.368 50.993 h -0.364 c -0.553 0 -1 -0.447 -1 -1 s 0.447 -1 1 -1 h 0.364 c 0.553 0 1 0.447 1 1 S 60.921 50.993 60.368 50.993 z" style="stroke: none; stroke-width: 1; stroke-dasharray: none; stroke-linecap: butt; stroke-linejoin: miter; stroke-miterlimit: 10; fill: rgb(0,0,0); fill-rule: nonzero; opacity: 1;" transform=" matrix(1 0 0 1 0 0) " stroke-linecap="round" />
	<path d="M 71.996 34.894 H 65.37 c -0.553 0 -1 -0.448 -1 -1 s 0.447 -1 1 -1 h 6.626 c 0.553 0 1 0.448 1 1 S 72.549 34.894 71.996 34.894 z" style="stroke: none; stroke-width: 1; stroke-dasharray: none; stroke-linecap: butt; stroke-linejoin: miter; stroke-miterlimit: 10; fill: rgb(0,0,0); fill-rule: nonzero; opacity: 1;" transform=" matrix(1 0 0 1 0 0) " stroke-linecap="round" />
	<path d="M 71.996 40.26 H 65.37 c -0.553 0 -1 -0.448 -1 -1 s 0.447 -1 1 -1 h 6.626 c 0.553 0 1 0.448 1 1 S 72.549 40.26 71.996 40.26 z" style="stroke: none; stroke-width: 1; stroke-dasharray: none; stroke-linecap: butt; stroke-linejoin: miter; stroke-miterlimit: 10; fill: rgb(0,0,0); fill-rule: nonzero; opacity: 1;" transform=" matrix(1 0 0 1 0 0) " stroke-linecap="round" />
	<path d="M 71.996 45.626 H 65.37 c -0.553 0 -1 -0.448 -1 -1 s 0.447 -1 1 -1 h 6.626 c 0.553 0 1 0.448 1 1 S 72.549 45.626 71.996 45.626 z" style="stroke: none; stroke-width: 1; stroke-dasharray: none; stroke-linecap: butt; stroke-linejoin: miter; stroke-miterlimit: 10; fill: rgb(0,0,0); fill-rule: nonzero; opacity: 1;" transform=" matrix(1 0 0 1 0 0) " stroke-linecap="round" />
	<path d="M 71.996 50.993 H 65.37 c -0.553 0 -1 -0.447 -1 -1 s 0.447 -1 1 -1 h 6.626 c 0.553 0 1 0.447 1 1 S 72.549 50.993 71.996 50.993 z" style="stroke: none; stroke-width: 1; stroke-dasharray: none; stroke-linecap: butt; stroke-linejoin: miter; stroke-miterlimit: 10; fill: rgb(0,0,0); fill-rule: nonzero; opacity: 1;" transform=" matrix(1 0 0 1 0 0) " stroke-linecap="round" />
	<path d="M 66.082 29.257 h -0.164 c -0.553 0 -1 -0.448 -1 -1 s 0.447 -1 1 -1 h 0.164 c 0.553 0 1 0.448 1 1 S 66.635 29.257 66.082 29.257 z" style="stroke: none; stroke-width: 1; stroke-dasharray: none; stroke-linecap: butt; stroke-linejoin: miter; stroke-miterlimit: 10; fill: rgb(0,0,0); fill-rule: nonzero; opacity: 1;" transform=" matrix(1 0 0 1 0 0) " stroke-linecap="round" />
	<path d="M 75.813 56.743 H 56.188 c -0.958 0 -1.737 -0.779 -1.737 -1.737 V 28.881 c 0 -0.958 0.779 -1.738 1.737 -1.738 h 5.23 c 0.553 0 1 0.448 1 1 s -0.447 1 -1 1 H 56.45 v 25.6 h 19.1 v -25.6 h -4.968 c -0.553 0 -1 -0.448 -1 -1 s 0.447 -1 1 -1 h 5.23 c 0.958 0 1.737 0.78 1.737 1.738 v 26.125 C 77.55 55.964 76.771 56.743 75.813 56.743 z" style="stroke: none; stroke-width: 1; stroke-dasharray: none; stroke-linecap: butt; stroke-linejoin: miter; stroke-miterlimit: 10; fill: rgb(0,0,0); fill-rule: nonzero; opacity: 1;" transform=" matrix(1 0 0 1 0 0) " stroke-linecap="round" />
	<path d="M 40.089 31.331 c -0.476 0 -0.898 -0.341 -0.984 -0.826 c -0.096 -0.544 0.267 -1.063 0.811 -1.159 l 0.127 -0.022 c 0.548 -0.094 1.063 0.267 1.159 0.811 c 0.096 0.544 -0.267 1.063 -0.811 1.159 l -0.127 0.022 C 40.206 31.326 40.147 31.331 40.089 31.331 z" style="stroke: none; stroke-width: 1; stroke-dasharray: none; stroke-linecap: butt; stroke-linejoin: miter; stroke-miterlimit: 10; fill: rgb(0,0,0); fill-rule: nonzero; opacity: 1;" transform=" matrix(1 0 0 1 0 0) " stroke-linecap="round" />
	<path d="M 36.025 43.566 c -0.75 0 -1.417 -0.538 -1.553 -1.3 l -1.805 -10.114 c -0.074 -0.415 0.018 -0.834 0.259 -1.18 c 0.241 -0.346 0.603 -0.577 1.018 -0.65 l 2.487 -0.444 c 0.546 -0.098 1.063 0.265 1.16 0.809 c 0.097 0.544 -0.265 1.063 -0.809 1.16 l -2.073 0.37 l 1.657 9.282 l 11.208 -2.001 l -1.657 -9.282 l -2.073 0.37 c -0.547 0.1 -1.063 -0.265 -1.16 -0.809 s 0.265 -1.063 0.809 -1.16 l 2.489 -0.444 c 0.416 -0.075 0.834 0.018 1.18 0.259 c 0.346 0.241 0.577 0.603 0.65 1.018 l 1.806 10.112 c 0.074 0.416 -0.019 0.834 -0.26 1.18 c -0.241 0.346 -0.603 0.577 -1.019 0.651 l -12.037 2.149 C 36.209 43.558 36.116 43.566 36.025 43.566 z" style="stroke: none; stroke-width: 1; stroke-dasharray: none; stroke-linecap: butt; stroke-linejoin: miter; stroke-miterlimit: 10; fill: rgb(0,0,0); fill-rule: nonzero; opacity: 1;" transform=" matrix(1 0 0 1 0 0) " stroke-linecap="round" />
	<path d="M 33.243 52.639 c -0.121 0 -0.245 -0.022 -0.364 -0.069 l -0.12 -0.047 c -0.514 -0.201 -0.768 -0.781 -0.566 -1.296 c 0.202 -0.513 0.783 -0.766 1.296 -0.565 l 0.12 0.047 c 0.514 0.201 0.768 0.781 0.566 1.296 C 34.02 52.397 33.643 52.639 33.243 52.639 z" style="stroke: none; stroke-width: 1; stroke-dasharray: none; stroke-linecap: butt; stroke-linejoin: miter; stroke-miterlimit: 10; fill: rgb(0,0,0); fill-rule: nonzero; opacity: 1;" transform=" matrix(1 0 0 1 0 0) " stroke-linecap="round" />
	<path d="M 34.974 65.44 c -0.189 0 -0.382 -0.034 -0.568 -0.106 l -11.397 -4.439 c -0.811 -0.316 -1.213 -1.233 -0.897 -2.043 l 3.728 -9.572 c 0.152 -0.393 0.449 -0.702 0.836 -0.872 c 0.387 -0.171 0.814 -0.178 1.208 -0.025 l 2.355 0.917 c 0.515 0.2 0.77 0.779 0.569 1.294 c -0.201 0.515 -0.78 0.771 -1.295 0.569 l -1.962 -0.764 l -3.422 8.786 l 10.609 4.132 l 3.422 -8.786 l -1.963 -0.765 c -0.514 -0.2 -0.769 -0.78 -0.568 -1.295 c 0.2 -0.515 0.778 -0.771 1.295 -0.568 l 2.356 0.918 c 0.392 0.151 0.702 0.448 0.872 0.835 c 0.169 0.386 0.178 0.814 0.026 1.207 l -3.729 9.573 C 36.204 65.059 35.605 65.44 34.974 65.44 z M 38.551 54.684 c 0 0 0.001 0.001 0.001 0.001 L 38.551 54.684 z" style="stroke: none; stroke-width: 1; stroke-dasharray: none; stroke-linecap: butt; stroke-linejoin: miter; stroke-miterlimit: 10; fill: rgb(0,0,0); fill-rule: nonzero; opacity: 1;" transform=" matrix(1 0 0 1 0 0) " stroke-linecap="round" />
	<path d="M 21.304 32.39 c -0.074 0 -0.149 -0.008 -0.225 -0.025 l -0.125 -0.029 c -0.539 -0.124 -0.875 -0.66 -0.751 -1.198 c 0.124 -0.539 0.661 -0.873 1.198 -0.751 l 0.125 0.029 c 0.539 0.124 0.875 0.66 0.751 1.198 C 22.171 32.076 21.76 32.39 21.304 32.39 z" style="stroke: none; stroke-width: 1; stroke-dasharray: none; stroke-linecap: butt; stroke-linejoin: miter; stroke-miterlimit: 10; fill: rgb(0,0,0); fill-rule: nonzero; opacity: 1;" transform=" matrix(1 0 0 1 0 0) " stroke-linecap="round" />
	<path d="M 24.789 44.813 c -0.119 0 -0.239 -0.013 -0.358 -0.041 l -11.917 -2.743 c -0.847 -0.194 -1.378 -1.042 -1.184 -1.891 l 2.304 -10.012 c 0.194 -0.847 1.037 -1.379 1.891 -1.184 l 2.464 0.567 c 0.538 0.124 0.874 0.661 0.75 1.199 c -0.124 0.539 -0.661 0.874 -1.199 0.75 l -2.052 -0.472 l -2.115 9.188 l 11.095 2.554 l 2.114 -9.188 l -2.052 -0.472 c -0.538 -0.124 -0.874 -0.661 -0.75 -1.199 c 0.124 -0.538 0.662 -0.873 1.199 -0.75 l 2.464 0.567 c 0.41 0.094 0.76 0.343 0.983 0.7 s 0.295 0.781 0.2 1.192 l -2.304 10.01 c -0.095 0.411 -0.344 0.76 -0.701 0.984 C 25.369 44.731 25.082 44.813 24.789 44.813 z" style="stroke: none; stroke-width: 1; stroke-dasharray: none; stroke-linecap: butt; stroke-linejoin: miter; stroke-miterlimit: 10; fill: rgb(0,0,0); fill-rule: nonzero; opacity: 1;" transform=" matrix(1 0 0 1 0 0) " stroke-linecap="round" />
</g>
</svg>