<svg xmlns="http://www.w3.org/2000/svg" xmlns:xlink="http://www.w3.org/1999/xlink" version="1.1" width="256" height="256" viewBox="0 0 256 256" xml:space="preserve">

<defs>
</defs>
<g style="stroke: none; stroke-width: 0; stroke-dasharray: none; stroke-linecap: butt; stroke-linejoin: miter; stroke-miterlimit: 10; fill: none; fill-rule: nonzero; opacity: 1;" transform="translate(1.4065934065934016 1.4065934065934016) scale(2.81 2.81)" >
	<path d="M 70.111 90 H 19.888 c -2.672 0 -4.846 -2.174 -4.846 -4.846 v -66.44 c 0 -2.672 2.174 -4.846 4.846 -4.846 h 9.061 c 0.552 0 1 0.448 1 1 s -0.448 1 -1 1 h -9.061 c -1.569 0 -2.846 1.276 -2.846 2.846 v 66.44 c 0 1.569 1.276 2.846 2.846 2.846 h 50.223 c 1.569 0 2.847 -1.276 2.847 -2.846 v -66.44 c 0 -1.569 -1.277 -2.846 -2.847 -2.846 h -9.061 c -0.553 0 -1 -0.448 -1 -1 s 0.447 -1 1 -1 h 9.061 c 2.673 0 4.847 2.174 4.847 4.846 v 66.44 C 74.958 87.826 72.784 90 70.111 90 z" style="stroke: none; stroke-width: 1; stroke-dasharray: none; stroke-linecap: butt; stroke-linejoin: miter; stroke-miterlimit: 10; fill: rgb(0,0,0); fill-rule: nonzero; opacity: 1;" transform=" matrix(1 0 0 1 0 0) " stroke-linecap="round" />
	<path d="M 61.051 19.383 H 28.949 c -0.552 0 -1 -0.448 -1 -1 v -3.397 c 0 -5.314 4.264 -9.651 9.55 -9.77 C 38.654 2.109 41.636 0 45 0 s 6.346 2.109 7.501 5.216 c 5.286 0.119 9.55 4.456 9.55 9.77 v 3.397 C 62.051 18.936 61.604 19.383 61.051 19.383 z M 29.949 17.383 h 30.102 v -2.397 c 0 -4.286 -3.486 -7.772 -7.772 -7.772 H 51.77 c -0.454 0 -0.851 -0.305 -0.967 -0.744 C 50.105 3.838 47.72 2 45 2 c -2.719 0 -5.105 1.838 -5.803 4.47 c -0.116 0.438 -0.513 0.744 -0.967 0.744 h -0.509 c -4.286 0 -7.772 3.487 -7.772 7.772 V 17.383 z" style="stroke: none; stroke-width: 1; stroke-dasharray: none; stroke-linecap: butt; stroke-linejoin: miter; stroke-miterlimit: 10; fill: rgb(0,0,0); fill-rule: nonzero; opacity: 1;" transform=" matrix(1 0 0 1 0 0) " stroke-linecap="round" />
	<path d="M 47.4 11.485 h -4.801 c -0.552 0 -1 -0.448 -1 -1 s 0.448 -1 1 -1 H 47.4 c 0.553 0 1 0.448 1 1 S 47.953 11.485 47.4 11.485 z" style="stroke: none; stroke-width: 1; stroke-dasharray: none; stroke-linecap: butt; stroke-linejoin: miter; stroke-miterlimit: 10; fill: rgb(0,0,0); fill-rule: nonzero; opacity: 1;" transform=" matrix(1 0 0 1 0 0) " stroke-linecap="round" />
	<path d="M 27.789 40.452 c -0.319 0 -0.62 -0.152 -0.808 -0.411 l -3.023 -4.148 c -0.325 -0.446 -0.227 -1.072 0.219 -1.397 c 0.447 -0.326 1.072 -0.227 1.397 0.219 l 2.134 2.928 l 3.758 -6.263 c 0.284 -0.474 0.897 -0.628 1.372 -0.343 c 0.474 0.284 0.627 0.898 0.343 1.372 l -4.534 7.557 c -0.172 0.288 -0.478 0.469 -0.813 0.484 C 27.819 40.451 27.804 40.452 27.789 40.452 z" style="stroke: none; stroke-width: 1; stroke-dasharray: none; stroke-linecap: butt; stroke-linejoin: miter; stroke-miterlimit: 10; fill: rgb(0,0,0); fill-rule: nonzero; opacity: 1;" transform=" matrix(1 0 0 1 0 0) " stroke-linecap="round" />
	<path d="M 64.271 32.895 H 39.872 c -0.552 0 -1 -0.448 -1 -1 s 0.448 -1 1 -1 h 24.399 c 0.553 0 1 0.448 1 1 S 64.824 32.895 64.271 32.895 z" style="stroke: none; stroke-width: 1; stroke-dasharray: none; stroke-linecap: butt; stroke-linejoin: miter; stroke-miterlimit: 10; fill: rgb(0,0,0); fill-rule: nonzero; opacity: 1;" transform=" matrix(1 0 0 1 0 0) " stroke-linecap="round" />
	<path d="M 52.653 40.452 H 39.872 c -0.552 0 -1 -0.448 -1 -1 s 0.448 -1 1 -1 h 12.781 c 0.553 0 1 0.448 1 1 S 53.206 40.452 52.653 40.452 z" style="stroke: none; stroke-width: 1; stroke-dasharray: none; stroke-linecap: butt; stroke-linejoin: miter; stroke-miterlimit: 10; fill: rgb(0,0,0); fill-rule: nonzero; opacity: 1;" transform=" matrix(1 0 0 1 0 0) " stroke-linecap="round" />
	<path d="M 27.789 58.451 c -0.319 0 -0.62 -0.152 -0.808 -0.411 l -3.023 -4.147 c -0.325 -0.446 -0.227 -1.071 0.219 -1.397 c 0.447 -0.324 1.072 -0.226 1.397 0.22 l 2.134 2.928 l 3.758 -6.263 c 0.284 -0.474 0.897 -0.627 1.372 -0.343 c 0.474 0.284 0.627 0.898 0.343 1.372 l -4.534 7.557 c -0.172 0.287 -0.478 0.47 -0.813 0.484 C 27.819 58.451 27.804 58.451 27.789 58.451 z" style="stroke: none; stroke-width: 1; stroke-dasharray: none; stroke-linecap: butt; stroke-linejoin: miter; stroke-miterlimit: 10; fill: rgb(0,0,0); fill-rule: nonzero; opacity: 1;" transform=" matrix(1 0 0 1 0 0) " stroke-linecap="round" />
	<path d="M 64.271 50.895 H 39.872 c -0.552 0 -1 -0.447 -1 -1 s 0.448 -1 1 -1 h 24.399 c 0.553 0 1 0.447 1 1 S 64.824 50.895 64.271 50.895 z" style="stroke: none; stroke-width: 1; stroke-dasharray: none; stroke-linecap: butt; stroke-linejoin: miter; stroke-miterlimit: 10; fill: rgb(0,0,0); fill-rule: nonzero; opacity: 1;" transform=" matrix(1 0 0 1 0 0) " stroke-linecap="round" />
	<path d="M 52.653 58.451 H 39.872 c -0.552 0 -1 -0.447 -1 -1 s 0.448 -1 1 -1 h 12.781 c 0.553 0 1 0.447 1 1 S 53.206 58.451 52.653 58.451 z" style="stroke: none; stroke-width: 1; stroke-dasharray: none; stroke-linecap: butt; stroke-linejoin: miter; stroke-miterlimit: 10; fill: rgb(0,0,0); fill-rule: nonzero; opacity: 1;" transform=" matrix(1 0 0 1 0 0) " stroke-linecap="round" />
	<path d="M 27.789 76.451 c -0.319 0 -0.62 -0.152 -0.808 -0.411 l -3.023 -4.147 c -0.325 -0.446 -0.227 -1.071 0.219 -1.397 c 0.447 -0.324 1.072 -0.227 1.397 0.22 l 2.134 2.928 l 3.758 -6.263 c 0.284 -0.474 0.897 -0.627 1.372 -0.343 c 0.474 0.284 0.627 0.898 0.343 1.372 l -4.534 7.557 c -0.172 0.287 -0.478 0.47 -0.813 0.484 C 27.819 76.451 27.804 76.451 27.789 76.451 z" style="stroke: none; stroke-width: 1; stroke-dasharray: none; stroke-linecap: butt; stroke-linejoin: miter; stroke-miterlimit: 10; fill: rgb(0,0,0); fill-rule: nonzero; opacity: 1;" transform=" matrix(1 0 0 1 0 0) " stroke-linecap="round" />
	<path d="M 64.271 68.895 H 39.872 c -0.552 0 -1 -0.447 -1 -1 s 0.448 -1 1 -1 h 24.399 c 0.553 0 1 0.447 1 1 S 64.824 68.895 64.271 68.895 z" style="stroke: none; stroke-width: 1; stroke-dasharray: none; stroke-linecap: butt; stroke-linejoin: miter; stroke-miterlimit: 10; fill: rgb(0,0,0); fill-rule: nonzero; opacity: 1;" transform=" matrix(1 0 0 1 0 0) " stroke-linecap="round" />
	<path d="M 52.653 76.451 H 39.872 c -0.552 0 -1 -0.447 -1 -1 s 0.448 -1 1 -1 h 12.781 c 0.553 0 1 0.447 1 1 S 53.206 76.451 52.653 76.451 z" style="stroke: none; stroke-width: 1; stroke-dasharray: none; stroke-linecap: butt; stroke-linejoin: miter; stroke-miterlimit: 10; fill: rgb(0,0,0); fill-rule: nonzero; opacity: 1;" transform=" matrix(1 0 0 1 0 0) " stroke-linecap="round" />
</g>
</svg>