<svg xmlns="http://www.w3.org/2000/svg" version="1.1"  width="1000" height="623" viewBox="0 0 1000 623"><g transform="matrix(1,0,0,1,-0.6060606060606233,0.2522267206477409)"><svg viewBox="0 0 396 247" data-background-color="#ffffff" preserveAspectRatio="xMidYMid meet" height="623" width="1000" xmlns="http://www.w3.org/2000/svg" xmlns:xlink="http://www.w3.org/1999/xlink"><defs></defs><g id="tight-bounds" transform="matrix(1,0,0,1,0.2400000000000091,-0.09999999999999432)"><svg viewBox="0 0 395.52 247.2" height="247.2" width="395.52"><g><svg></svg></g><g><svg viewBox="0 0 395.52 247.2" height="247.2" width="395.52"><g transform="matrix(2.5020408163265304, 0, 0, 2.5020408163265304, 79.25834285714285, 1)"><svg xmlns="http://www.w3.org/2000/svg" xmlns:xlink="http://www.w3.org/1999/xlink" version="1.1" x="0" y="0" viewBox="2 1 94.724 98" enable-background="new 0 0 100 100" xml:space="preserve" height="98" width="94.724" class="icon-none" data-fill-palette-color="accent" id="none"><g fill="#3c64b1" data-fill-palette-color="accent"><path d="M72 92H56.505h-1.009H9V8h63v38.458l7-12.543V8.158C79 4.195 76.23 1 72.267 1H8.708C4.746 1 2 4.195 2 8.158v84.121C2 96.241 4.746 99 8.708 99h63.559C76.23 99 79 96.241 79 92.279V69.233l-7 12.543V92z" fill="#3c64b1" data-fill-palette-color="accent"></path><rect x="15" y="19" width="39" height="5" fill="#3c64b1" data-fill-palette-color="accent"></rect><rect x="15" y="42" width="39" height="5" fill="#3c64b1" data-fill-palette-color="accent"></rect><rect x="15" y="31" width="51" height="5" fill="#3c64b1" data-fill-palette-color="accent"></rect><rect x="15" y="54" width="51" height="5" fill="#3c64b1" data-fill-palette-color="accent"></rect><rect x="15" y="65" width="39" height="5" fill="#3c64b1" data-fill-palette-color="accent"></rect><polygon points="89.696,26.201 87.8,29.502 86.982,30.927 94.01,34.963 94.828,33.539 96.724,30.237  " fill="#3c64b1" data-fill-palette-color="accent"></polygon><polygon points="60,76.589 60,85 67.224,80.626 92.103,37.575 85.075,33.539  " fill="#3c64b1" data-fill-palette-color="accent"></polygon><circle cx="19.604" cy="81.623" r="4.9" fill="#3c64b1" data-fill-palette-color="accent"></circle><circle cx="35.01" cy="81.683" r="4.9" fill="#3c64b1" data-fill-palette-color="accent"></circle></g></svg></g><rect width="348.05760000000004" height="60.44894353392366" fill="#ffffff" y="93.37552823303817" x="23.731199999999973" data-fill-palette-color="quaternary"></rect><g transform="matrix(1,0,0,1,39.55199999999999,103.06919083969466)"><svg viewBox="0 0 316.416 41.061618320610684" height="41.061618320610684" width="316.416"><g><svg viewBox="0 0 316.416 41.061618320610684" height="41.061618320610684" width="316.416"><g><svg viewBox="0 0 316.416 41.061618320610684" height="41.061618320610684" width="316.416"><g><svg viewBox="0 0 316.416 41.061618320610684" height="41.061618320610684" width="316.416"><g><svg viewBox="0 0 316.416 41.061618320610684" height="41.061618320610684" width="316.416"><g><svg viewBox="0 0 316.416 41.061618320610684" height="41.061618320610684" width="316.416"><g transform="matrix(1,0,0,1,0,0)"><svg width="316.416" viewBox="2.7 -35.65 281.63 36.55" height="41.061618320610684" data-palette-color="#3c64b1"><path d="M22.15-18.4Q25.65-17.7 27.8-15.85 29.95-14 29.95-10.2L29.95-10.2Q29.95-4.55 25.85-2.27 21.75 0 14.4 0L14.4 0 2.7 0 2.7-34.75 13.05-34.75Q20.55-34.75 24.53-32.68 28.5-30.6 28.5-25.8L28.5-25.8Q28.5-22.75 26.68-20.93 24.85-19.1 22.15-18.4L22.15-18.4ZM13.9-28.3L11.95-28.3 11.95-21.05 14.35-21.05Q16.8-21.05 17.95-21.95 19.1-22.85 19.1-24.85L19.1-24.85Q19.1-26.7 17.88-27.5 16.65-28.3 13.9-28.3L13.9-28.3ZM14.45-6.6Q17.4-6.6 18.9-7.48 20.4-8.35 20.4-10.75L20.4-10.75Q20.4-13.05 19-14.08 17.6-15.1 14.95-15.1L14.95-15.1 11.95-15.1 11.95-6.6 14.45-6.6ZM48.2-35.65Q55.75-35.65 59.95-30.85 64.15-26.05 64.15-17.4L64.15-17.4Q64.15-11.75 62.27-7.63 60.4-3.5 56.8-1.3 53.2 0.9 48.2 0.9L48.2 0.9Q40.65 0.9 36.47-3.9 32.3-8.7 32.3-17.4L32.3-17.4Q32.3-23.05 34.17-27.15 36.05-31.25 39.62-33.45 43.2-35.65 48.2-35.65L48.2-35.65ZM48.2-29Q44.95-29 43.42-26.3 41.9-23.6 41.9-17.4L41.9-17.4Q41.9-11.2 43.45-8.47 45-5.75 48.2-5.75L48.2-5.75Q51.5-5.75 53-8.45 54.5-11.15 54.5-17.4L54.5-17.4Q54.5-23.6 53-26.3 51.5-29 48.2-29L48.2-29ZM82.7-35.65Q90.25-35.65 94.45-30.85 98.65-26.05 98.65-17.4L98.65-17.4Q98.65-11.75 96.77-7.63 94.9-3.5 91.3-1.3 87.7 0.9 82.7 0.9L82.7 0.9Q75.15 0.9 70.97-3.9 66.8-8.7 66.8-17.4L66.8-17.4Q66.8-23.05 68.67-27.15 70.55-31.25 74.12-33.45 77.7-35.65 82.7-35.65L82.7-35.65ZM82.7-29Q79.45-29 77.92-26.3 76.4-23.6 76.4-17.4L76.4-17.4Q76.4-11.2 77.95-8.47 79.5-5.75 82.7-5.75L82.7-5.75Q86-5.75 87.5-8.45 89-11.15 89-17.4L89-17.4Q89-23.6 87.5-26.3 86-29 82.7-29L82.7-29ZM114.64-35.65Q118.59-35.65 121.62-34.5 124.64-33.35 127.04-31.05L127.04-31.05 122.89-26.15Q119.29-29 115.34-29L115.34-29Q113.29-29 112.22-28.23 111.14-27.45 111.14-26.05L111.14-26.05Q111.14-25.05 111.69-24.4 112.24-23.75 113.54-23.15 114.84-22.55 117.64-21.65L117.64-21.65Q122.99-19.95 125.47-17.38 127.94-14.8 127.94-10.25L127.94-10.25Q127.94-6.95 126.24-4.42 124.54-1.9 121.32-0.5 118.09 0.9 113.74 0.9L113.74 0.9Q105.44 0.9 100.19-4.15L100.19-4.15 104.74-9.2Q108.89-5.8 113.39-5.8L113.39-5.8Q115.74-5.8 117.04-6.83 118.34-7.85 118.34-9.55L118.34-9.55Q118.34-10.75 117.84-11.53 117.34-12.3 116.07-12.93 114.79-13.55 112.34-14.3L112.34-14.3Q106.44-16.15 104.04-18.75 101.64-21.35 101.64-25.3L101.64-25.3Q101.64-28.4 103.32-30.75 104.99-33.1 107.97-34.38 110.94-35.65 114.64-35.65L114.64-35.65ZM129.29-34.75L156.39-34.75 155.44-27.7 147.24-27.7 147.24 0 137.99 0 137.99-27.7 129.29-27.7 129.29-34.75ZM168.24 0L158.99 0 158.99-34.75 180.34-34.75 179.39-28.2 168.24-28.2 168.24-19.85 178.04-19.85 178.04-13.3 168.24-13.3 168.24 0ZM197.84-35.65Q205.39-35.65 209.59-30.85 213.79-26.05 213.79-17.4L213.79-17.4Q213.79-11.75 211.91-7.63 210.04-3.5 206.44-1.3 202.84 0.9 197.84 0.9L197.84 0.9Q190.28 0.9 186.11-3.9 181.94-8.7 181.94-17.4L181.94-17.4Q181.94-23.05 183.81-27.15 185.69-31.25 189.26-33.45 192.84-35.65 197.84-35.65L197.84-35.65ZM197.84-29Q194.59-29 193.06-26.3 191.53-23.6 191.53-17.4L191.53-17.4Q191.53-11.2 193.09-8.47 194.64-5.75 197.84-5.75L197.84-5.75Q201.14-5.75 202.64-8.45 204.14-11.15 204.14-17.4L204.14-17.4Q204.14-23.6 202.64-26.3 201.14-29 197.84-29L197.84-29ZM236.38 0L229.58-12.8 227.03-12.8 227.03 0 217.78 0 217.78-34.75 229.83-34.75Q237.18-34.75 240.81-32.1 244.43-29.45 244.43-23.95L244.43-23.95Q244.43-20.65 242.91-18.45 241.38-16.25 238.03-14.5L238.03-14.5 246.68 0 236.38 0ZM227.03-28.3L227.03-19.1 230.13-19.1Q234.93-19.1 234.93-23.95L234.93-23.95Q234.93-26.2 233.61-27.25 232.28-28.3 229.63-28.3L229.63-28.3 227.03-28.3ZM281.73-34.75L284.33 0 275.23 0 274.78-12.95 274.73-15.1Q274.63-18.1 274.63-19.65L274.63-19.65Q274.63-23.4 274.93-27.15L274.93-27.15 270.18-3.6 261.43-3.6 256.38-27.15Q256.83-21.3 256.83-16.85L256.83-16.85Q256.83-14.3 256.78-12.95L256.78-12.95 256.38 0 247.28 0 249.83-34.75 261.33-34.75 265.98-11.7 270.18-34.75 281.73-34.75Z" opacity="1" transform="matrix(1,0,0,1,0,0)" fill="#3c64b1" class="undefined-text-0" data-fill-palette-color="primary" id="text-0"></path></svg></g></svg></g></svg></g></svg></g><g></g></svg></g></svg></g></svg></g></svg></g></svg><rect width="395.52" height="247.2" fill="none" stroke="none" visibility="hidden"></rect></g></svg></g></svg>